<svg width="57" height="66" viewBox="0 0 57 66" fill="none" xmlns="http://www.w3.org/2000/svg">
<path d="M9.8427 44.3534L14.7613 38.9275L27.6711 41.1448L18.0324 51.7775C16.4793 53.4908 14.0966 54.0045 12.0493 53.2614L9.39874 56.1853C8.43599 57.2474 7.02136 57.4684 6.12734 56.658C5.3296 55.9348 4.91937 54.5857 6.14396 53.2348L8.85617 50.2429C8.03268 48.3179 8.34443 46.0062 9.8427 44.3534Z" fill="#71A68D"/>
<path fill-rule="evenodd" clip-rule="evenodd" d="M7.01737 55.6762C7.58791 56.1934 8.6231 56.1476 9.44126 55.2451L12.0919 52.3211C12.2555 52.1406 12.5121 52.077 12.7411 52.1601C14.5673 52.823 16.691 52.3639 18.075 50.8372L39.7464 26.9309L40.6355 27.7368L18.964 51.6432C17.3391 53.4357 14.8962 54.0429 12.7203 53.4146L10.3303 56.051C9.22299 57.2726 7.42892 57.6689 6.21142 56.5652C5.71764 56.1176 5.32993 55.4645 5.26636 54.6938C5.20161 53.9088 5.47919 53.0748 6.18648 52.2946L8.64947 49.5776C7.92222 47.5228 8.31721 45.1428 9.88522 43.4131L31.5566 19.5068L32.4457 20.3127L10.7743 44.2191C9.43928 45.6918 9.16019 47.7523 9.89487 49.4697C9.9871 49.6853 9.94526 49.9349 9.78776 50.1086L7.07555 53.1005C6.55825 53.6712 6.42865 54.1872 6.4623 54.5952C6.49714 55.0176 6.71342 55.4006 7.01737 55.6762Z" fill="#352287"/>
<path d="M43.5485 23.684L48.2207 18.53C50.2581 16.2825 50.0878 12.8088 47.8402 10.7714C45.5927 8.73396 42.1191 8.9043 40.0816 11.1518L35.4094 16.3059" stroke="#4CAFBD" stroke-width="1.2"/>
<rect x="32.1585" y="13.3588" width="19.6203" height="5.44078" rx="0.5" transform="rotate(42.1927 32.1585 13.3588)" stroke="#BC0100" stroke-width="1.2"/>
</svg>
