<svg width="51" height="51" viewBox="0 0 51 51" fill="none" xmlns="http://www.w3.org/2000/svg">
<path d="M16.3756 31.1571L18.9762 28.2883L25.8019 29.4606L20.7057 35.0824C19.8845 35.9883 18.6247 36.2599 17.5423 35.8669C17.0332 36.4285 16.8482 35.8925 16.3756 35.464C15.9538 35.0817 15.854 35.0824 15.854 34.271C15.4186 33.2532 15.5834 32.0309 16.3756 31.1571Z" fill="#71A68D"/>
<path fill-rule="evenodd" clip-rule="evenodd" d="M15.7493 36.386C13.5171 34.5065 13.77 31.511 15.3181 29.5023C15.343 29.4699 15.3693 29.4386 15.3968 29.4084L26.8882 16.7796L29.1071 18.7986L17.6604 31.3782C16.8415 32.4751 17.0207 33.5347 17.6816 34.0912C18.2913 34.6045 19.3872 34.741 20.3294 33.9883L31.7153 21.428L33.938 23.4429L22.4798 36.0828C22.4364 36.1307 22.3899 36.1757 22.3407 36.2176C20.2894 37.9634 17.5164 37.8738 15.7493 36.386Z" fill="#352287"/>
<path d="M33.1474 21.1214L35.4935 18.5333C36.5166 17.4048 36.431 15.6605 35.3025 14.6375C34.1739 13.6144 32.4297 13.6999 31.4066 14.8285L29.0605 17.4165" stroke="#4CAFBD" stroke-width="3"/>
<rect x="26.7031" y="16.2446" width="10.3737" height="1.34184" rx="0.5" transform="rotate(42.1927 26.7031 16.2446)" stroke="#BC0100" stroke-width="3"/>
<circle cx="16.0538" cy="36.2938" r="2.47401" fill="#352287"/>
</svg>
