<svg width="51" height="51" viewBox="0 0 51 51" fill="none" xmlns="http://www.w3.org/2000/svg">
<circle cx="25.4501" cy="25.9448" r="25" fill="white"/>
<path d="M16.1308 31.3473L18.7314 28.4785L25.5571 29.6508L20.4609 35.2726C19.6397 36.1785 18.3799 36.45 17.2975 36.0571C16.7884 36.6187 16.6035 36.0827 16.1308 35.6542C15.709 35.2719 15.6092 35.2726 15.6092 34.4612C15.1738 33.4434 15.3386 32.2211 16.1308 31.3473Z" fill="#71A68D"/>
<path fill-rule="evenodd" clip-rule="evenodd" d="M13.6383 33.4058C13.6271 32.2437 14.0958 31.1708 14.7946 30.389L14.8036 30.3789L14.8036 30.379L26.2968 17.7517L28.5154 19.7711L17.0275 32.3925C16.7767 32.6752 16.6349 33.0394 16.6382 33.377C16.641 33.6742 16.7542 34.0493 17.2115 34.4362C17.8469 34.974 18.6522 34.8855 19.1671 34.3187L30.6249 21.6792L32.8476 23.6941L21.3894 36.334L21.3886 36.3348C19.8363 38.0447 17.1977 38.3546 15.2735 36.7263C14.1774 35.7987 13.6499 34.6101 13.6383 33.4058Z" fill="#352287"/>
<path d="M32.9027 21.3115L35.373 18.5865C36.4502 17.3982 36.3601 15.5616 35.1718 14.4843C33.9835 13.4071 32.1469 13.4972 31.0696 14.6855L28.5993 17.4105" stroke="#4CAFBD" stroke-width="3"/>
<rect x="26.4583" y="16.4348" width="10.3737" height="1.34184" rx="0.5" transform="rotate(42.1927 26.4583 16.4348)" stroke="#BC0100" stroke-width="3"/>
<circle cx="14.9546" cy="36.7597" r="2.47401" fill="#352287"/>
</svg>
