<?xml version="1.0" encoding="UTF-8"?><svg id="Lager_1" xmlns="http://www.w3.org/2000/svg" viewBox="0 0 113.87 133.96"><defs><style>.cls-1{fill:#1d1d1b;}</style></defs><path class="cls-1" d="M95.15,55.53h-9.21c-1.59-13.49-6.19-32.38-23.02-32.38-7.94,0-13.18,4.13-13.18,13.49,0,23.02,53.34,21.59,53.34,55.72,0,21.91-18.57,33.65-46.35,33.65-12.22,0-26.19-3.81-40-11.59-2.22-12.22-3.65-26.35-4.29-38.57l8.89-1.11c9.05,27.14,22.7,40.16,37.3,40.16,8.41,0,13.97-5.4,13.97-13.18,0-21.75-53.34-20.48-53.34-56.19,0-17.62,17.46-32.54,43.33-32.54,13.49,0,24.29,3.17,35.08,8.41l-2.54,34.13Z"/></svg>